<svg version="1.1" id="Layer_1" xmlns="http://www.w3.org/2000/svg" xmlns:xlink="http://www.w3.org/1999/xlink" x="0px" y="0px"
	 width="100%" viewBox="0 0 512 512" enable-background="new 0 0 512 512" xml:space="preserve">
<path fill="#FFFFFF" opacity="1.000000" stroke="none" 
	d="
M1.000001,136.000000 
	C1.000000,91.025139 1.000000,46.050274 1.000000,1.037706 
	C171.546173,1.037706 342.092377,1.037706 513.000000,1.037706 
	C513.000000,46.020248 513.000000,91.041466 512.649658,136.435669 
	C508.730103,125.628372 498.298767,122.612167 481.000000,124.449104 
	C481.000000,126.191093 481.000000,127.980522 481.000000,129.769958 
	C481.000000,204.055313 481.032471,278.340729 480.916809,352.625885 
	C480.910095,356.936829 479.846069,361.273682 479.023987,365.550415 
	C476.867279,376.770325 470.343719,385.465240 461.352051,391.758179 
	C455.863098,395.599670 449.110718,398.496033 442.535461,399.720032 
	C433.077484,401.480652 423.228455,401.011200 413.611633,402.080688 
	C401.685486,403.407043 389.711945,404.764954 377.962677,407.124176 
	C356.565552,411.420624 336.286804,418.993073 317.984711,431.084198 
	C310.235443,436.203735 303.054840,442.184021 295.615784,447.773102 
	C303.718506,447.452240 310.972137,445.940857 318.297821,444.977570 
	C332.178314,443.152374 346.062500,441.001373 360.015442,440.180145 
	C373.958130,439.359467 387.986786,439.999207 401.977753,440.001221 
	C403.310059,440.001434 404.655090,439.903015 405.972717,440.046936 
	C417.804504,441.339600 429.644501,442.571747 441.455383,444.036682 
	C449.340790,445.014709 457.215668,446.159332 465.035675,447.561707 
	C474.079987,449.183655 482.996735,451.620880 492.083282,452.875366 
	C501.727173,454.206879 508.323425,449.014618 513.000000,441.000000 
	C513.000000,464.983948 513.000000,488.967896 513.000000,512.948608 
	C342.333313,512.945374 171.666656,512.945374 1.000000,512.945374 
	C1.000000,489.572937 1.000000,466.255127 1.340935,442.546539 
	C6.470521,449.920013 13.352611,454.276154 22.508343,452.885712 
	C39.937256,450.238831 57.206783,446.485870 74.669388,444.134552 
	C89.903778,442.083282 105.292213,440.646118 120.650009,440.185760 
	C137.039139,439.694458 153.480408,440.456268 169.882019,441.101013 
	C176.684937,441.368469 183.477020,442.553375 190.214981,443.675598 
	C199.376648,445.201477 208.481705,447.067108 218.195831,448.897186 
	C217.229736,447.849152 216.613342,447.112305 215.927719,446.446777 
	C201.895615,432.824829 185.231857,423.116272 167.214706,416.236664 
	C140.344742,405.976715 112.305092,400.930634 83.431572,400.947388 
	C78.856293,400.950043 74.071907,400.988831 69.740059,399.758270 
	C47.079391,393.320740 33.216267,376.699219 33.115578,352.875244 
	C32.800804,278.397552 33.000000,203.917679 33.000000,129.438644 
	C33.000000,127.679688 33.000000,125.920738 33.000000,124.036697 
	C23.966810,124.074699 15.236948,122.705215 7.863441,128.125793 
	C5.125661,130.138443 3.262188,133.340408 1.000001,136.000000 
M61.000000,176.500000 
	C61.000000,190.498810 61.000000,204.497620 61.000000,218.496429 
	C61.000000,264.159790 61.121635,309.823792 60.890949,355.485992 
	C60.848030,363.981079 68.640892,372.400330 76.151962,372.970001 
	C86.479424,373.753296 96.838409,374.149933 107.153694,375.056000 
	C115.911949,375.825226 124.831306,376.243561 133.316864,378.307526 
	C148.259537,381.942108 163.216187,385.920685 177.636063,391.204254 
	C196.821014,398.233826 214.330353,408.594604 229.734253,422.233490 
	C234.040497,426.046295 238.359756,429.844421 243.000000,433.937683 
	C243.000000,336.810669 243.007370,240.317978 242.945511,143.825317 
	C242.944321,141.950455 242.543045,139.839111 241.627838,138.238739 
	C233.762741,124.485382 223.289780,113.027260 211.360611,102.591949 
	C198.761963,91.570984 184.530899,83.361954 169.266327,77.228172 
	C140.311478,65.593216 109.936516,60.759724 78.757080,61.015923 
	C70.388336,61.084690 60.769371,68.086380 60.881840,79.008186 
	C61.213017,111.169121 61.000000,143.335663 61.000000,176.500000 
M271.000000,429.112427 
	C271.000000,430.354645 271.000000,431.596863 271.000000,433.842987 
	C275.854767,429.614441 279.920502,426.163544 283.887238,422.602386 
	C300.697205,407.511169 320.243958,396.994720 341.183990,389.086609 
	C371.310242,377.709198 402.866577,373.784943 434.811920,373.222809 
	C443.994598,373.061218 453.212860,364.184692 453.180878,354.530792 
	C452.877472,262.879089 453.000122,171.225952 452.999756,79.573235 
	C452.999725,68.479576 445.468964,60.512024 434.318787,61.125538 
	C419.296967,61.952087 404.258270,63.163467 389.345337,65.115189 
	C367.164093,68.018166 346.332581,75.356239 326.625031,85.999146 
	C306.095459,97.085976 289.717926,112.698601 276.191742,131.483841 
	C272.516479,136.588058 270.843323,142.135895 270.858093,148.740158 
	C271.066803,241.892181 271.000000,335.044830 271.000000,429.112427 
z"/>
<path fill="#000000" opacity="1.000000" stroke="none" 
	d="
M1.000001,136.468658 
	C3.262188,133.340408 5.125661,130.138443 7.863441,128.125793 
	C15.236948,122.705215 23.966810,124.074699 33.000000,124.036697 
	C33.000000,125.920738 33.000000,127.679688 33.000000,129.438644 
	C33.000000,203.917679 32.800804,278.397552 33.115578,352.875244 
	C33.216267,376.699219 47.079391,393.320740 69.740059,399.758270 
	C74.071907,400.988831 78.856293,400.950043 83.431572,400.947388 
	C112.305092,400.930634 140.344742,405.976715 167.214706,416.236664 
	C185.231857,423.116272 201.895615,432.824829 215.927719,446.446777 
	C216.613342,447.112305 217.229736,447.849152 218.195831,448.897186 
	C208.481705,447.067108 199.376648,445.201477 190.214981,443.675598 
	C183.477020,442.553375 176.684937,441.368469 169.882019,441.101013 
	C153.480408,440.456268 137.039139,439.694458 120.650009,440.185760 
	C105.292213,440.646118 89.903778,442.083282 74.669388,444.134552 
	C57.206783,446.485870 39.937256,450.238831 22.508343,452.885712 
	C13.352611,454.276154 6.470521,449.920013 1.340935,442.077881 
	C1.000000,340.312439 1.000000,238.624878 1.000001,136.468658 
z"/>
<path fill="#000000" opacity="1.000000" stroke="none" 
	d="
M513.000000,440.531342 
	C508.323425,449.014618 501.727173,454.206879 492.083282,452.875366 
	C482.996735,451.620880 474.079987,449.183655 465.035675,447.561707 
	C457.215668,446.159332 449.340790,445.014709 441.455383,444.036682 
	C429.644501,442.571747 417.804504,441.339600 405.972717,440.046936 
	C404.655090,439.903015 403.310059,440.001434 401.977753,440.001221 
	C387.986786,439.999207 373.958130,439.359467 360.015442,440.180145 
	C346.062500,441.001373 332.178314,443.152374 318.297821,444.977570 
	C310.972137,445.940857 303.718506,447.452240 295.615784,447.773102 
	C303.054840,442.184021 310.235443,436.203735 317.984711,431.084198 
	C336.286804,418.993073 356.565552,411.420624 377.962677,407.124176 
	C389.711945,404.764954 401.685486,403.407043 413.611633,402.080688 
	C423.228455,401.011200 433.077484,401.480652 442.535461,399.720032 
	C449.110718,398.496033 455.863098,395.599670 461.352051,391.758179 
	C470.343719,385.465240 476.867279,376.770325 479.023987,365.550415 
	C479.846069,361.273682 480.910095,356.936829 480.916809,352.625885 
	C481.032471,278.340729 481.000000,204.055313 481.000000,129.769958 
	C481.000000,127.980522 481.000000,126.191093 481.000000,124.449104 
	C498.298767,122.612167 508.730103,125.628372 512.649658,136.904327 
	C513.000000,238.020889 513.000000,339.041779 513.000000,440.531342 
z"/>
<path fill="#000000" opacity="1.000000" stroke="none" 
	d="
M61.000000,176.000000 
	C61.000000,143.335663 61.213017,111.169121 60.881840,79.008186 
	C60.769371,68.086380 70.388336,61.084690 78.757080,61.015923 
	C109.936516,60.759724 140.311478,65.593216 169.266327,77.228172 
	C184.530899,83.361954 198.761963,91.570984 211.360611,102.591949 
	C223.289780,113.027260 233.762741,124.485382 241.627838,138.238739 
	C242.543045,139.839111 242.944321,141.950455 242.945511,143.825317 
	C243.007370,240.317978 243.000000,336.810669 243.000000,433.937683 
	C238.359756,429.844421 234.040497,426.046295 229.734253,422.233490 
	C214.330353,408.594604 196.821014,398.233826 177.636063,391.204254 
	C163.216187,385.920685 148.259537,381.942108 133.316864,378.307526 
	C124.831306,376.243561 115.911949,375.825226 107.153694,375.056000 
	C96.838409,374.149933 86.479424,373.753296 76.151962,372.970001 
	C68.640892,372.400330 60.848030,363.981079 60.890949,355.485992 
	C61.121635,309.823792 61.000000,264.159790 61.000000,218.496429 
	C61.000000,204.497620 61.000000,190.498810 61.000000,176.000000 
z"/>
<path fill="#000000" opacity="1.000000" stroke="none" 
	d="
M271.000000,428.654877 
	C271.000000,335.044830 271.066803,241.892181 270.858093,148.740158 
	C270.843323,142.135895 272.516479,136.588058 276.191742,131.483841 
	C289.717926,112.698601 306.095459,97.085976 326.625031,85.999146 
	C346.332581,75.356239 367.164093,68.018166 389.345337,65.115189 
	C404.258270,63.163467 419.296967,61.952087 434.318787,61.125538 
	C445.468964,60.512024 452.999725,68.479576 452.999756,79.573235 
	C453.000122,171.225952 452.877472,262.879089 453.180878,354.530792 
	C453.212860,364.184692 443.994598,373.061218 434.811920,373.222809 
	C402.866577,373.784943 371.310242,377.709198 341.183990,389.086609 
	C320.243958,396.994720 300.697205,407.511169 283.887238,422.602386 
	C279.920502,426.163544 275.854767,429.614441 271.000000,433.842987 
	C271.000000,431.596863 271.000000,430.354645 271.000000,428.654877 
z"/>
</svg>