<svg version="1.1" id="Layer_1" xmlns="http://www.w3.org/2000/svg" xmlns:xlink="http://www.w3.org/1999/xlink" x="0px" y="0px"
	 width="100%" viewBox="0 0 512 512" enable-background="new 0 0 512 512" xml:space="preserve">
<path fill="#010101" opacity="1.000000" stroke="none" 
	d="
M304.000000,513.000000 
	C202.691269,513.000000 101.882530,513.000000 1.036899,513.000000 
	C1.036899,342.399567 1.036899,171.799149 1.036899,1.099354 
	C171.558746,1.099354 342.117554,1.099354 512.838196,1.099354 
	C512.838196,171.666550 512.838196,342.333252 512.838196,513.000000 
	C443.465790,513.000000 373.982880,513.000000 304.000000,513.000000 
M395.083649,217.787933 
	C386.688080,217.787933 378.292480,217.787933 370.183289,217.787933 
	C370.183289,221.808807 370.183289,225.035736 370.183289,228.122314 
	C379.055725,228.122314 387.522339,228.122314 396.896515,228.384140 
	C408.964905,228.384140 421.033325,228.384140 433.130920,228.384140 
	C433.130920,224.520279 433.130920,221.301498 433.130920,218.000519 
	C420.535278,218.000519 408.267700,218.000519 395.083649,217.787933 
M202.067688,356.891510 
	C193.832535,356.891510 185.597382,356.891510 177.372559,356.891510 
	C177.372559,367.006195 177.372559,376.245209 177.372559,385.803009 
	C186.159607,385.803009 194.610291,385.803009 203.982544,385.929779 
	C218.918076,385.929779 233.853607,385.929779 248.829254,385.929779 
	C248.829254,375.926086 248.829254,366.554626 248.829254,357.000000 
	C233.265213,357.000000 218.132599,357.000000 202.067688,356.891510 
M131.130157,401.013733 
	C121.840302,400.999969 112.540443,400.753082 103.268272,401.151245 
	C101.184647,401.240692 97.796043,403.287689 97.444611,404.948944 
	C96.589989,408.988800 97.166443,413.331421 97.166443,417.667847 
	C109.266403,417.667847 120.689507,417.667847 133.026962,417.793854 
	C152.520477,417.804352 172.013992,417.820831 191.507507,417.823944 
	C223.330475,417.829010 255.153488,417.843903 286.976288,417.772644 
	C288.639709,417.768921 291.174683,417.537537 291.814880,416.496460 
	C294.806610,411.631378 297.275513,406.444855 300.144501,400.966064 
	C297.654694,400.966064 295.826813,400.966095 293.998932,400.966095 
	C243.015533,400.966095 192.032135,400.962616 141.048737,400.974854 
	C138.054077,400.975555 135.059433,401.102875 131.130157,401.013733 
M336.942200,440.519958 
	C358.586823,440.536102 380.231476,440.559814 401.876099,440.566406 
	C428.349548,440.574493 454.823029,440.539795 481.296387,440.590576 
	C487.085724,440.601685 492.240173,439.403198 495.609070,434.199432 
	C499.338013,428.439545 498.147156,422.968719 494.889832,417.352325 
	C473.055328,379.704376 451.367737,341.971191 429.522583,304.329468 
	C425.823975,297.956329 423.918579,291.319336 424.060364,283.942261 
	C424.242737,274.455292 424.104645,264.962158 424.104614,255.471680 
	C424.104584,251.554031 424.104584,247.636383 424.104584,243.756165 
	C417.305237,243.756165 411.178497,243.756165 404.152191,243.457108 
	C395.872559,243.457108 387.592926,243.457108 378.984070,243.457108 
	C378.984070,257.386383 378.842133,270.843750 379.041229,284.296051 
	C379.148071,291.515686 377.361267,298.028931 373.713531,304.204315 
	C367.548798,314.640808 361.537262,325.167908 355.477692,335.666382 
	C339.539398,363.280151 323.555878,390.868103 307.704407,418.531647 
	C301.611206,429.165405 307.466370,439.937408 319.629211,440.504333 
	C325.087524,440.758728 330.576752,440.349762 336.942200,440.519958 
M61.079533,341.690125 
	C66.409813,341.717529 71.748032,341.939301 77.068329,341.722137 
	C83.393173,341.463959 89.065201,341.886932 89.835587,350.002075 
	C95.670631,350.002075 100.997948,350.121033 106.311981,349.908264 
	C107.464516,349.862152 109.324043,348.827820 109.571762,347.903839 
	C111.007980,342.546753 114.813637,341.717896 119.560287,341.735138 
	C142.550827,341.818756 165.541824,341.772461 188.532669,341.772400 
	C235.680557,341.772308 282.828461,341.787811 329.976227,341.713959 
	C331.794006,341.711121 334.520477,341.444031 335.275177,340.288696 
	C339.241730,334.216583 342.709595,327.818756 347.018860,320.380646 
	C340.925812,320.380646 336.009613,320.380646 331.093384,320.380646 
	C242.462021,320.380646 153.830673,320.378082 65.199310,320.396973 
	C63.215454,320.397400 61.231644,320.641418 58.332935,320.415741 
	C44.313183,320.415741 30.293430,320.415741 15.983957,320.415741 
	C15.983957,326.210510 15.909101,331.342743 16.010353,336.471527 
	C16.077511,339.873413 18.175829,341.774353 21.395084,341.778870 
	C34.324974,341.797058 47.255154,341.612793 61.079533,341.690125 
M59.943722,305.378326 
	C136.941391,305.398407 213.939041,305.419556 290.936707,305.437866 
	C311.102905,305.442657 331.269165,305.459656 351.435181,305.397064 
	C352.992126,305.392212 355.458038,305.298889 355.953491,304.396637 
	C358.881165,299.064911 363.203094,293.616241 363.614227,287.956909 
	C364.685486,273.209991 363.974640,258.333618 363.974640,243.440491 
	C357.077667,241.377838 354.376984,236.726212 354.729004,229.824234 
	C354.983337,224.837296 354.711334,219.825821 354.795898,214.827362 
	C354.930603,206.867706 358.902618,202.854034 366.854095,202.777542 
	C376.519653,202.684555 386.186768,202.753296 395.853210,202.752426 
	C400.610657,202.751984 405.368103,202.752350 410.503815,202.752350 
	C410.503815,200.269730 410.503815,198.463409 410.503815,196.657074 
	C410.503845,180.157455 410.601807,163.656937 410.449432,147.158722 
	C410.397827,141.568558 411.669861,137.252655 417.865845,136.290344 
	C417.865845,129.592163 417.865845,123.286079 417.865845,116.643822 
	C411.455963,115.696671 410.340729,111.223106 410.461700,105.698723 
	C410.629517,98.035912 410.507324,90.366676 410.502716,82.700188 
	C410.497498,74.089951 409.832794,73.435417 401.017334,73.435265 
	C289.186615,73.433296 177.355881,73.432266 65.525162,73.448303 
	C63.707081,73.448563 61.889034,73.665298 59.169991,73.477020 
	C47.338547,73.457512 35.507027,73.404175 23.675694,73.431831 
	C17.106308,73.447189 15.994406,74.654564 15.994010,81.464294 
	C15.989767,154.455612 15.989736,227.446915 16.002001,300.438232 
	C16.002268,302.024628 16.161722,303.610992 16.242708,305.119019 
	C30.788887,305.119019 44.915749,305.119019 59.943722,305.378326 
z"/>
<path fill="#FEE4C1" opacity="1.000000" stroke="none" 
	d="
M60.070969,73.781013 
	C61.889034,73.665298 63.707081,73.448563 65.525162,73.448303 
	C177.355881,73.432266 289.186615,73.433296 401.017334,73.435265 
	C409.832794,73.435417 410.497498,74.089951 410.502716,82.700188 
	C410.507324,90.366676 410.629517,98.035912 410.461700,105.698723 
	C410.340729,111.223106 411.455963,115.696671 417.865845,116.643822 
	C417.865845,123.286079 417.865845,129.592163 417.865845,136.290344 
	C411.669861,137.252655 410.397827,141.568558 410.449432,147.158722 
	C410.601807,163.656937 410.503845,180.157455 410.503815,196.657074 
	C410.503815,198.463409 410.503815,200.269730 410.503815,202.752350 
	C405.368103,202.752350 400.610657,202.751984 395.853210,202.752426 
	C386.186768,202.753296 376.519653,202.684555 366.854095,202.777542 
	C358.902618,202.854034 354.930603,206.867706 354.795898,214.827362 
	C354.711334,219.825821 354.983337,224.837296 354.729004,229.824234 
	C354.376984,236.726212 357.077667,241.377838 363.974640,243.440491 
	C363.974640,258.333618 364.685486,273.209991 363.614227,287.956909 
	C363.203094,293.616241 358.881165,299.064911 355.953491,304.396637 
	C355.458038,305.298889 352.992126,305.392212 351.435181,305.397064 
	C331.269165,305.459656 311.102905,305.442657 290.936707,305.437866 
	C213.939041,305.419556 136.941391,305.398407 59.484406,304.772339 
	C59.020882,286.582245 58.979389,268.997955 59.067276,251.414322 
	C59.076569,249.554443 59.845600,247.698349 60.667068,245.858856 
	C66.742897,247.380188 73.226097,248.098785 77.444893,244.399017 
	C84.758865,237.984894 90.104256,241.678131 96.058807,245.644821 
	C97.715370,246.748352 99.416969,247.870117 101.249870,248.603897 
	C104.341629,249.841675 105.107590,251.798813 105.007118,255.135345 
	C104.614891,268.162140 113.896362,278.334869 126.951050,279.702728 
	C138.970169,280.962067 151.381516,271.975677 152.039001,259.245972 
	C152.466766,250.963943 156.576065,247.891205 162.602753,244.977158 
	C164.543625,244.038696 166.523392,243.057953 168.209534,241.742905 
	C171.041168,239.534439 173.074799,239.970306 175.936417,242.182938 
	C183.867844,248.315643 194.654282,248.292114 203.036270,242.728668 
	C211.130905,237.355927 215.145615,227.559174 213.142700,217.944870 
	C211.246475,208.842606 205.304749,203.224258 197.175293,199.793274 
	C197.175293,190.226517 197.175293,180.917511 197.175293,171.676483 
	C214.000137,164.542343 217.044296,148.103409 210.578827,136.820374 
	C207.187439,130.901962 202.126892,126.923752 195.497787,125.387680 
	C186.621994,123.331017 178.803818,125.861824 172.260727,131.972321 
	C166.747513,128.805511 161.614273,125.729607 156.354309,122.888283 
	C153.643036,121.423714 152.466980,119.889854 152.655426,116.397392 
	C153.329971,103.896500 143.326782,92.791023 131.203796,91.903893 
	C118.073120,90.943016 105.437134,99.689545 105.500229,112.041130 
	C105.543625,120.537003 101.207787,123.130363 95.467392,126.132431 
	C92.672592,127.594048 90.061470,129.415085 87.233406,130.800247 
	C86.305687,131.254654 84.532372,131.338791 83.865265,130.761215 
	C76.461250,124.350838 68.047302,123.670189 59.016182,125.525848 
	C59.367416,107.965378 59.719193,90.873199 60.070969,73.781013 
M288.499847,184.756149 
	C317.659821,184.756119 346.819794,184.756790 375.979767,184.754120 
	C377.479065,184.753983 378.991333,184.846115 380.475281,184.687286 
	C385.126434,184.189484 388.100525,181.048828 387.968109,176.907837 
	C387.835144,172.748047 384.758148,169.939056 379.974701,169.769302 
	C377.047852,169.665436 374.114349,169.750107 371.002838,169.750107 
	C371.002838,161.398682 371.061554,153.738663 370.982758,146.080063 
	C370.927765,140.733917 367.876221,137.397171 363.359955,137.483551 
	C359.035645,137.566254 356.162445,140.813660 356.006958,145.855606 
	C355.950470,147.686783 355.996399,149.521149 355.996338,151.354050 
	C355.996155,157.429123 355.996277,163.504211 355.996277,169.488373 
	C349.601013,169.488373 343.999451,169.488373 338.001770,169.488373 
	C338.001770,156.441574 338.056885,143.646744 337.974426,130.852814 
	C337.941864,125.797607 334.951355,122.630966 330.566956,122.592522 
	C326.154541,122.553833 323.092194,125.700142 323.029266,130.714401 
	C322.922577,139.211105 322.997406,147.710114 322.996368,156.208145 
	C322.995850,160.634171 322.996277,165.060211 322.996277,169.534302 
	C316.713989,169.534302 311.113007,169.534302 305.003723,169.534302 
	C305.003723,167.717117 305.003723,166.103394 305.003723,164.489655 
	C305.003723,146.493805 305.014709,128.497940 304.997772,110.502113 
	C304.991791,104.135063 302.420715,100.810371 297.568451,100.769653 
	C292.688904,100.728699 290.009705,104.076767 290.003052,110.358902 
	C289.983978,128.354736 289.996277,146.350601 289.996277,164.346451 
	C289.996277,166.085022 289.996277,167.823593 289.996277,169.489838 
	C283.604645,169.489838 278.003052,169.489838 272.003693,169.489838 
	C272.003693,161.945648 272.019257,154.649490 271.998993,147.353439 
	C271.981476,141.041306 269.370697,137.569748 264.631531,137.482498 
	C259.713501,137.391983 257.012726,140.947952 256.999573,147.581055 
	C256.985168,154.851318 256.996277,162.121613 256.996277,169.849976 
	C253.125534,169.849976 249.684204,169.274506 246.575302,170.043304 
	C244.336868,170.596848 241.596832,172.575333 240.813858,174.591354 
	C240.028839,176.612701 240.562012,180.326675 242.024368,181.744461 
	C243.897766,183.560760 247.260437,184.563980 250.011414,184.627991 
	C262.501801,184.918625 275.002686,184.755783 288.499847,184.756149 
M275.500122,202.736816 
	C266.668793,202.737000 257.833038,202.584991 249.009079,202.840607 
	C246.704514,202.907379 243.585846,203.587006 242.371109,205.163864 
	C240.909744,207.060852 240.188553,210.427017 240.743515,212.780655 
	C241.727203,216.952667 245.575195,217.773941 249.503784,217.771194 
	C274.498199,217.753738 299.492645,217.788940 324.486969,217.743256 
	C330.610168,217.732056 334.125397,214.714050 333.974182,209.911148 
	C333.829346,205.310867 330.523315,202.758270 324.489380,202.747070 
	C308.493011,202.717361 292.496582,202.736862 275.500122,202.736816 
M270.500122,250.736801 
	C262.835358,250.745880 255.168182,250.642334 247.506790,250.807404 
	C243.099564,250.902359 240.044724,253.921097 240.049393,257.910828 
	C240.054382,262.192230 242.436615,264.667938 246.523132,265.552032 
	C247.487122,265.760590 248.509430,265.753937 249.504944,265.754333 
	C274.499359,265.764465 299.493805,265.789001 324.488129,265.743225 
	C330.610657,265.732025 334.126099,262.712891 333.974152,257.910004 
	C333.828644,253.309967 330.522766,250.756760 324.488251,250.747070 
	C306.825592,250.718719 289.162872,250.736862 270.500122,250.736801 
M285.499908,241.764221 
	C290.332153,241.764221 295.164429,241.766251 299.996674,241.763794 
	C308.661316,241.759399 317.329590,241.900269 325.989258,241.689682 
	C331.010590,241.567551 334.113647,238.259247 333.974152,233.906998 
	C333.846283,229.918167 330.888580,226.823410 326.484070,226.808319 
	C300.157318,226.718079 273.829987,226.718079 247.503250,226.809235 
	C243.101059,226.824493 240.043274,229.923721 240.049347,233.913589 
	C240.055862,238.195114 242.431808,240.708649 246.528610,241.537399 
	C247.977509,241.830490 249.511902,241.753387 251.007385,241.755478 
	C262.171539,241.771072 273.335693,241.764114 285.499908,241.764221 
z"/>
<path fill="#F8CEA1" opacity="1.000000" stroke="none" 
	d="
M59.620480,73.629013 
	C59.719193,90.873199 59.367416,107.965378 58.784851,125.777954 
	C41.819038,134.971710 37.915100,156.250595 52.626984,166.357788 
	C60.666012,171.880661 60.814404,177.729385 60.621277,185.221100 
	C60.531254,188.713013 60.462616,192.216919 60.651413,195.700912 
	C60.801155,198.464172 60.126400,200.070618 57.311165,201.375137 
	C51.180035,204.216125 47.010067,209.125275 44.961174,215.652283 
	C41.088291,227.989807 46.669624,238.963562 60.262169,245.840500 
	C59.845600,247.698349 59.076569,249.554443 59.067276,251.414322 
	C58.979389,268.997955 59.020882,286.582245 59.033852,304.642670 
	C44.915749,305.119019 30.788887,305.119019 16.242708,305.119019 
	C16.161722,303.610992 16.002268,302.024628 16.002001,300.438232 
	C15.989736,227.446915 15.989767,154.455612 15.994010,81.464294 
	C15.994406,74.654564 17.106308,73.447189 23.675694,73.431831 
	C35.507027,73.404175 47.338547,73.457512 59.620480,73.629013 
z"/>
<path fill="#9C9595" opacity="1.000000" stroke="none" 
	d="
M59.247810,320.771790 
	C61.231644,320.641418 63.215454,320.397400 65.199310,320.396973 
	C153.830673,320.378082 242.462021,320.380646 331.093384,320.380646 
	C336.009613,320.380646 340.925812,320.380646 347.018860,320.380646 
	C342.709595,327.818756 339.241730,334.216583 335.275177,340.288696 
	C334.520477,341.444031 331.794006,341.711121 329.976227,341.713959 
	C282.828461,341.787811 235.680557,341.772308 188.532669,341.772400 
	C165.541824,341.772461 142.550827,341.818756 119.560287,341.735138 
	C114.813637,341.717896 111.007980,342.546753 109.571762,347.903839 
	C109.324043,348.827820 107.464516,349.862152 106.311981,349.908264 
	C100.997948,350.121033 95.670631,350.002075 89.835587,350.002075 
	C89.065201,341.886932 83.393173,341.463959 77.068329,341.722137 
	C71.748032,341.939301 66.409813,341.717529 60.577198,341.206879 
	C59.799179,334.073029 59.523495,327.422394 59.247810,320.771790 
z"/>
<path fill="#DDF4FB" opacity="1.000000" stroke="none" 
	d="
M405.051758,243.756165 
	C411.178497,243.756165 417.305237,243.756165 424.104584,243.756165 
	C424.104584,247.636383 424.104584,251.554031 424.104614,255.471680 
	C424.104645,264.962158 424.242737,274.455292 424.060364,283.942261 
	C423.918579,291.319336 425.823975,297.956329 429.522583,304.329468 
	C451.367737,341.971191 473.055328,379.704376 494.889832,417.352325 
	C498.147156,422.968719 499.338013,428.439545 495.609070,434.199432 
	C492.240173,439.403198 487.085724,440.601685 481.296387,440.590576 
	C454.823029,440.539795 428.349548,440.574493 401.876099,440.566406 
	C380.231476,440.559814 358.586823,440.536102 336.393555,440.085571 
	C334.575104,436.719147 333.305328,433.787109 332.488953,430.735779 
	C355.936401,430.603821 378.930389,430.586639 401.924408,430.579590 
	C424.918610,430.572510 447.913330,430.663879 470.906830,430.534973 
	C481.612732,430.474976 486.131805,422.496765 480.901520,413.234375 
	C477.141693,406.575989 473.078491,400.083069 469.488464,393.336578 
	C466.883972,388.442169 463.329834,386.600677 457.793762,387.980652 
	C454.332886,382.300537 451.100250,376.887299 448.102875,371.250977 
	C452.424713,367.694550 452.504913,363.867340 449.952576,359.534729 
	C444.975433,351.085876 439.898743,342.684723 435.265656,334.047974 
	C432.306671,328.531982 428.170959,326.262024 421.981079,326.346619 
	C410.001160,326.510345 398.015198,326.233398 386.146667,325.804810 
	C389.458801,319.871063 392.371368,314.083740 395.915619,308.713257 
	C402.285370,299.061371 406.070312,289.028564 405.169342,277.064423 
	C404.337738,266.021362 405.030426,254.863480 405.051758,243.756165 
z"/>
<path fill="#C2E7F5" opacity="1.000000" stroke="none" 
	d="
M404.601990,243.606628 
	C405.030426,254.863480 404.337738,266.021362 405.169342,277.064423 
	C406.070312,289.028564 402.285370,299.061371 395.915619,308.713257 
	C392.371368,314.083740 389.458801,319.871063 385.768250,325.942627 
	C382.942352,326.436859 380.366302,325.833344 378.333130,326.624695 
	C375.114075,327.877716 371.008301,329.324524 369.441925,331.970490 
	C353.262909,359.300079 337.448273,386.846832 321.700562,414.429291 
	C317.477325,421.826447 321.185486,428.900146 329.603699,430.385468 
	C330.416626,430.528900 331.225006,430.697937 332.035522,430.855042 
	C333.305328,433.787109 334.575104,436.719147 335.948425,439.946533 
	C330.576752,440.349762 325.087524,440.758728 319.629211,440.504333 
	C307.466370,439.937408 301.611206,429.165405 307.704407,418.531647 
	C323.555878,390.868103 339.539398,363.280151 355.477692,335.666382 
	C361.537262,325.167908 367.548798,314.640808 373.713531,304.204315 
	C377.361267,298.028931 379.148071,291.515686 379.041229,284.296051 
	C378.842133,270.843750 378.984070,257.386383 378.984070,243.457108 
	C387.592926,243.457108 395.872559,243.457108 404.601990,243.606628 
z"/>
<path fill="#9E9797" opacity="1.000000" stroke="none" 
	d="
M132.064789,401.171265 
	C135.059433,401.102875 138.054077,400.975555 141.048737,400.974854 
	C192.032135,400.962616 243.015533,400.966095 293.998932,400.966095 
	C295.826813,400.966095 297.654694,400.966064 300.144501,400.966064 
	C297.275513,406.444855 294.806610,411.631378 291.814880,416.496460 
	C291.174683,417.537537 288.639709,417.768921 286.976288,417.772644 
	C255.153488,417.843903 223.330475,417.829010 191.507507,417.823944 
	C172.013992,417.820831 152.520477,417.804352 132.530762,417.287506 
	C132.044632,411.577850 132.054703,406.374573 132.064789,401.171265 
z"/>
<path fill="#766E6E" opacity="1.000000" stroke="none" 
	d="
M203.000000,357.000000 
	C218.132599,357.000000 233.265213,357.000000 248.829254,357.000000 
	C248.829254,366.554626 248.829254,375.926086 248.829254,385.929779 
	C233.853607,385.929779 218.918076,385.929779 203.504456,385.412689 
	C203.017563,375.597076 203.008789,366.298523 203.000000,357.000000 
z"/>
<path fill="#6B6565" opacity="1.000000" stroke="none" 
	d="
M58.790375,320.593750 
	C59.523495,327.422394 59.799179,334.073029 60.130043,341.113464 
	C47.255154,341.612793 34.324974,341.797058 21.395084,341.778870 
	C18.175829,341.774353 16.077511,339.873413 16.010353,336.471527 
	C15.909101,331.342743 15.983957,326.210510 15.983957,320.415741 
	C30.293430,320.415741 44.313183,320.415741 58.790375,320.593750 
z"/>
<path fill="#5B5555" opacity="1.000000" stroke="none" 
	d="
M202.533844,356.945740 
	C203.008789,366.298523 203.017563,375.597076 203.043671,385.349304 
	C194.610291,385.803009 186.159607,385.803009 177.372559,385.803009 
	C177.372559,376.245209 177.372559,367.006195 177.372559,356.891510 
	C185.597382,356.891510 193.832535,356.891510 202.533844,356.945740 
z"/>
<path fill="#746D6D" opacity="1.000000" stroke="none" 
	d="
M131.597473,401.092499 
	C132.054703,406.374573 132.044632,411.577850 132.073578,417.224487 
	C120.689507,417.667847 109.266403,417.667847 97.166443,417.667847 
	C97.166443,413.331421 96.589989,408.988800 97.444611,404.948944 
	C97.796043,403.287689 101.184647,401.240692 103.268272,401.151245 
	C112.540443,400.753082 121.840302,400.999969 131.597473,401.092499 
z"/>
<path fill="#99E6FC" opacity="1.000000" stroke="none" 
	d="
M396.000183,218.000519 
	C408.267700,218.000519 420.535278,218.000519 433.130920,218.000519 
	C433.130920,221.301498 433.130920,224.520279 433.130920,228.384140 
	C421.033325,228.384140 408.964905,228.384140 396.445709,227.790894 
	C395.996643,224.131943 395.998413,221.066238 396.000183,218.000519 
z"/>
<path fill="#62DBFB" opacity="1.000000" stroke="none" 
	d="
M395.541931,217.894226 
	C395.998413,221.066238 395.996643,224.131943 395.991943,227.659988 
	C387.522339,228.122314 379.055725,228.122314 370.183289,228.122314 
	C370.183289,225.035736 370.183289,221.808807 370.183289,217.787933 
	C378.292480,217.787933 386.688080,217.787933 395.541931,217.894226 
z"/>
<path fill="#030303" opacity="1.000000" stroke="none" 
	d="
M60.667068,245.858856 
	C46.669624,238.963562 41.088291,227.989807 44.961174,215.652283 
	C47.010067,209.125275 51.180035,204.216125 57.311165,201.375137 
	C60.126400,200.070618 60.801155,198.464172 60.651413,195.700912 
	C60.462616,192.216919 60.531254,188.713013 60.621277,185.221100 
	C60.814404,177.729385 60.666012,171.880661 52.626984,166.357788 
	C37.915100,156.250595 41.819038,134.971710 58.785397,126.246239 
	C68.047302,123.670189 76.461250,124.350838 83.865265,130.761215 
	C84.532372,131.338791 86.305687,131.254654 87.233406,130.800247 
	C90.061470,129.415085 92.672592,127.594048 95.467392,126.132431 
	C101.207787,123.130363 105.543625,120.537003 105.500229,112.041130 
	C105.437134,99.689545 118.073120,90.943016 131.203796,91.903893 
	C143.326782,92.791023 153.329971,103.896500 152.655426,116.397392 
	C152.466980,119.889854 153.643036,121.423714 156.354309,122.888283 
	C161.614273,125.729607 166.747513,128.805511 172.260727,131.972321 
	C178.803818,125.861824 186.621994,123.331017 195.497787,125.387680 
	C202.126892,126.923752 207.187439,130.901962 210.578827,136.820374 
	C217.044296,148.103409 214.000137,164.542343 197.175293,171.676483 
	C197.175293,180.917511 197.175293,190.226517 197.175293,199.793274 
	C205.304749,203.224258 211.246475,208.842606 213.142700,217.944870 
	C215.145615,227.559174 211.130905,237.355927 203.036270,242.728668 
	C194.654282,248.292114 183.867844,248.315643 175.936417,242.182938 
	C173.074799,239.970306 171.041168,239.534439 168.209534,241.742905 
	C166.523392,243.057953 164.543625,244.038696 162.602753,244.977158 
	C156.576065,247.891205 152.466766,250.963943 152.039001,259.245972 
	C151.381516,271.975677 138.970169,280.962067 126.951050,279.702728 
	C113.896362,278.334869 104.614891,268.162140 105.007118,255.135345 
	C105.107590,251.798813 104.341629,249.841675 101.249870,248.603897 
	C99.416969,247.870117 97.715370,246.748352 96.058807,245.644821 
	C90.104256,241.678131 84.758865,237.984894 77.444893,244.399017 
	C73.226097,248.098785 66.742897,247.380188 60.667068,245.858856 
M70.768227,231.089676 
	C74.756866,229.774216 76.701050,226.739105 76.723343,222.816345 
	C76.744255,219.135101 75.090256,216.089020 70.636063,214.272598 
	C66.095131,213.223495 61.856777,214.181610 60.198071,218.618851 
	C59.190956,221.313019 59.453499,225.258270 60.745499,227.841248 
	C62.405441,231.159821 65.950340,232.827042 70.768227,231.089676 
M192.727020,156.984802 
	C196.777206,155.496918 198.845566,152.396255 198.645981,148.285553 
	C198.449371,144.236465 196.371201,141.151184 191.232422,139.935410 
	C186.972382,139.375458 183.130722,140.686508 181.963348,144.810120 
	C181.166534,147.624817 181.573822,151.454208 182.941681,154.035675 
	C184.615784,157.195129 188.158829,158.526535 192.727020,156.984802 
M130.211334,106.952179 
	C125.961601,106.440956 122.114250,107.750603 120.961884,111.873436 
	C120.175697,114.686188 120.611618,118.501259 121.979248,121.086105 
	C123.645088,124.234566 127.144577,125.634186 131.725891,124.017632 
	C135.834976,122.566452 137.876007,119.423103 137.685883,115.309494 
	C137.497406,111.231339 135.331314,108.181717 130.211334,106.952179 
M69.207832,139.923203 
	C64.961197,139.397186 61.142567,140.733078 59.991325,144.836060 
	C59.203686,147.643188 59.618393,151.455826 60.984753,154.027832 
	C62.643887,157.150970 66.138252,158.570618 70.715477,156.998398 
	C74.819542,155.536041 76.913521,152.416885 76.714432,148.274521 
	C76.517944,144.186340 74.375900,141.111465 69.207832,139.923203 
M192.630219,214.317703 
	C188.302261,213.222610 184.064774,214.005524 182.390289,218.152695 
	C181.259918,220.952271 181.433441,225.099625 182.723785,227.845062 
	C184.296692,231.191666 187.921219,232.880035 192.759842,231.076920 
	C196.716095,229.747314 198.661270,226.711182 198.662201,222.822266 
	C198.663071,219.207718 197.130829,216.084991 192.630219,214.317703 
M131.674011,247.278275 
	C127.363518,246.218323 123.108017,246.945084 121.420135,251.089294 
	C120.281235,253.885635 120.439484,258.029297 121.716934,260.781403 
	C123.279099,264.146881 126.929092,265.750885 131.748230,264.058105 
	C135.703064,262.735291 137.651077,259.710815 137.696152,255.818451 
	C137.738480,252.164017 136.121323,249.108704 131.674011,247.278275 
M159.799545,229.257278 
	C161.810089,228.096298 163.820633,226.935333 165.888107,225.741486 
	C165.237900,214.374466 169.810364,206.083725 179.962814,200.878601 
	C180.960739,200.366989 181.904907,198.671677 181.927032,197.507782 
	C182.091339,188.862305 182.016144,180.212265 182.016144,171.675598 
	C172.218094,166.243347 166.784424,161.603973 166.677124,153.894257 
	C166.558929,145.402130 161.490479,142.767563 155.640228,139.733063 
	C152.694565,138.205170 149.939026,136.305634 146.970032,134.830811 
	C145.999374,134.348633 144.281006,134.170578 143.489410,134.710648 
	C132.892776,141.940155 122.615204,141.054520 112.514435,133.629105 
	C106.360992,137.174210 100.249496,140.538422 94.340942,144.227661 
	C93.118065,144.991211 92.025032,146.924179 91.934357,148.384140 
	C91.328003,158.146851 87.044617,165.394867 78.395462,170.181854 
	C77.045570,170.928940 75.725418,173.052704 75.667908,174.587692 
	C75.387703,182.067078 75.410378,189.567017 75.657616,197.048737 
	C75.703949,198.450989 76.933861,200.393219 78.175285,201.083893 
	C86.942833,205.962036 91.471062,213.252823 91.922783,223.271683 
	C91.982285,224.591263 93.014404,226.363068 94.134117,227.056107 
	C100.180519,230.798538 106.396561,234.266891 112.526016,237.813507 
	C123.384453,229.794006 134.109161,229.724152 144.962982,237.805206 
	C149.693726,235.103836 154.442139,232.392380 159.799545,229.257278 
z"/>
<path fill="#030302" opacity="1.000000" stroke="none" 
	d="
M287.999817,184.756134 
	C275.002686,184.755783 262.501801,184.918625 250.011414,184.627991 
	C247.260437,184.563980 243.897766,183.560760 242.024368,181.744461 
	C240.562012,180.326675 240.028839,176.612701 240.813858,174.591354 
	C241.596832,172.575333 244.336868,170.596848 246.575302,170.043304 
	C249.684204,169.274506 253.125534,169.849976 256.996277,169.849976 
	C256.996277,162.121613 256.985168,154.851318 256.999573,147.581055 
	C257.012726,140.947952 259.713501,137.391983 264.631531,137.482498 
	C269.370697,137.569748 271.981476,141.041306 271.998993,147.353439 
	C272.019257,154.649490 272.003693,161.945648 272.003693,169.489838 
	C278.003052,169.489838 283.604645,169.489838 289.996277,169.489838 
	C289.996277,167.823593 289.996277,166.085022 289.996277,164.346451 
	C289.996277,146.350601 289.983978,128.354736 290.003052,110.358902 
	C290.009705,104.076767 292.688904,100.728699 297.568451,100.769653 
	C302.420715,100.810371 304.991791,104.135063 304.997772,110.502113 
	C305.014709,128.497940 305.003723,146.493805 305.003723,164.489655 
	C305.003723,166.103394 305.003723,167.717117 305.003723,169.534302 
	C311.113007,169.534302 316.713989,169.534302 322.996277,169.534302 
	C322.996277,165.060211 322.995850,160.634171 322.996368,156.208145 
	C322.997406,147.710114 322.922577,139.211105 323.029266,130.714401 
	C323.092194,125.700142 326.154541,122.553833 330.566956,122.592522 
	C334.951355,122.630966 337.941864,125.797607 337.974426,130.852814 
	C338.056885,143.646744 338.001770,156.441574 338.001770,169.488373 
	C343.999451,169.488373 349.601013,169.488373 355.996277,169.488373 
	C355.996277,163.504211 355.996155,157.429123 355.996338,151.354050 
	C355.996399,149.521149 355.950470,147.686783 356.006958,145.855606 
	C356.162445,140.813660 359.035645,137.566254 363.359955,137.483551 
	C367.876221,137.397171 370.927765,140.733917 370.982758,146.080063 
	C371.061554,153.738663 371.002838,161.398682 371.002838,169.750107 
	C374.114349,169.750107 377.047852,169.665436 379.974701,169.769302 
	C384.758148,169.939056 387.835144,172.748047 387.968109,176.907837 
	C388.100525,181.048828 385.126434,184.189484 380.475281,184.687286 
	C378.991333,184.846115 377.479065,184.753983 375.979767,184.754120 
	C346.819794,184.756790 317.659821,184.756119 287.999817,184.756134 
z"/>
<path fill="#060505" opacity="1.000000" stroke="none" 
	d="
M276.000122,202.736816 
	C292.496582,202.736862 308.493011,202.717361 324.489380,202.747070 
	C330.523315,202.758270 333.829346,205.310867 333.974182,209.911148 
	C334.125397,214.714050 330.610168,217.732056 324.486969,217.743256 
	C299.492645,217.788940 274.498199,217.753738 249.503784,217.771194 
	C245.575195,217.773941 241.727203,216.952667 240.743515,212.780655 
	C240.188553,210.427017 240.909744,207.060852 242.371109,205.163864 
	C243.585846,203.587006 246.704514,202.907379 249.009079,202.840607 
	C257.833038,202.584991 266.668793,202.737000 276.000122,202.736816 
z"/>
<path fill="#060505" opacity="1.000000" stroke="none" 
	d="
M271.000122,250.736801 
	C289.162872,250.736862 306.825592,250.718719 324.488251,250.747070 
	C330.522766,250.756760 333.828644,253.309967 333.974152,257.910004 
	C334.126099,262.712891 330.610657,265.732025 324.488129,265.743225 
	C299.493805,265.789001 274.499359,265.764465 249.504944,265.754333 
	C248.509430,265.753937 247.487122,265.760590 246.523132,265.552032 
	C242.436615,264.667938 240.054382,262.192230 240.049393,257.910828 
	C240.044724,253.921097 243.099564,250.902359 247.506790,250.807404 
	C255.168182,250.642334 262.835358,250.745880 271.000122,250.736801 
z"/>
<path fill="#060505" opacity="1.000000" stroke="none" 
	d="
M284.999878,241.764221 
	C273.335693,241.764114 262.171539,241.771072 251.007385,241.755478 
	C249.511902,241.753387 247.977509,241.830490 246.528610,241.537399 
	C242.431808,240.708649 240.055862,238.195114 240.049347,233.913589 
	C240.043274,229.923721 243.101059,226.824493 247.503250,226.809235 
	C273.829987,226.718079 300.157318,226.718079 326.484070,226.808319 
	C330.888580,226.823410 333.846283,229.918167 333.974152,233.906998 
	C334.113647,238.259247 331.010590,241.567551 325.989258,241.689682 
	C317.329590,241.900269 308.661316,241.759399 299.996674,241.763794 
	C295.164429,241.766251 290.332153,241.764221 284.999878,241.764221 
z"/>
<path fill="#050506" opacity="1.000000" stroke="none" 
	d="
M332.488953,430.735779 
	C331.225006,430.697937 330.416626,430.528900 329.603699,430.385468 
	C321.185486,428.900146 317.477325,421.826447 321.700562,414.429291 
	C337.448273,386.846832 353.262909,359.300079 369.441925,331.970490 
	C371.008301,329.324524 375.114075,327.877716 378.333130,326.624695 
	C380.366302,325.833344 382.942352,326.436859 385.653320,326.276855 
	C398.015198,326.233398 410.001160,326.510345 421.981079,326.346619 
	C428.170959,326.262024 432.306671,328.531982 435.265656,334.047974 
	C439.898743,342.684723 444.975433,351.085876 449.952576,359.534729 
	C452.504913,363.867340 452.424713,367.694550 447.690918,371.369934 
	C442.307587,373.008850 439.150208,371.152252 436.824341,366.985809 
	C432.718811,359.631195 428.245178,352.478363 424.267303,345.057953 
	C422.548859,341.852356 420.523315,340.689880 416.687805,341.667664 
	C406.077179,341.461639 395.914581,341.553741 385.760101,341.309052 
	C382.347992,341.226837 380.444275,342.274017 378.706848,345.332306 
	C366.132141,367.467010 353.328094,389.471405 340.613983,411.527039 
	C339.992767,412.604675 339.534210,413.776062 338.820648,415.282227 
	C351.599884,415.282227 363.850006,415.282227 376.548340,415.391235 
	C405.919189,415.500214 434.841827,415.500214 464.840790,415.500214 
	C461.616821,409.903564 458.877625,405.224915 456.213562,400.503845 
	C453.075012,394.941833 453.398499,392.933319 458.021973,388.247528 
	C463.329834,386.600677 466.883972,388.442169 469.488464,393.336578 
	C473.078491,400.083069 477.141693,406.575989 480.901520,413.234375 
	C486.131805,422.496765 481.612732,430.474976 470.906830,430.534973 
	C447.913330,430.663879 424.918610,430.572510 401.924408,430.579590 
	C378.930389,430.586639 355.936401,430.603821 332.488953,430.735779 
z"/>
<path fill="#FD3D97" opacity="1.000000" stroke="none" 
	d="
M417.139038,341.834167 
	C420.523315,340.689880 422.548859,341.852356 424.267303,345.057953 
	C428.245178,352.478363 432.718811,359.631195 436.824341,366.985809 
	C439.150208,371.152252 442.307587,373.008850 447.455688,371.592987 
	C451.100250,376.887299 454.332886,382.300537 457.793762,387.980652 
	C453.398499,392.933319 453.075012,394.941833 456.213562,400.503845 
	C458.877625,405.224915 461.616821,409.903564 464.840790,415.500214 
	C434.841827,415.500214 405.919189,415.500214 376.539948,415.066895 
	C376.270996,414.004425 376.343628,413.308777 376.663086,412.755737 
	C385.801727,396.933807 395.011688,381.152924 404.104584,365.304871 
	C408.557739,357.543488 412.800842,349.661560 417.139038,341.834167 
z"/>
<path fill="#FCE3C0" opacity="1.000000" stroke="none" 
	d="
M159.495041,229.469101 
	C154.442139,232.392380 149.693726,235.103836 144.962982,237.805206 
	C134.109161,229.724152 123.384453,229.794006 112.526016,237.813507 
	C106.396561,234.266891 100.180519,230.798538 94.134117,227.056107 
	C93.014404,226.363068 91.982285,224.591263 91.922783,223.271683 
	C91.471062,213.252823 86.942833,205.962036 78.175285,201.083893 
	C76.933861,200.393219 75.703949,198.450989 75.657616,197.048737 
	C75.410378,189.567017 75.387703,182.067078 75.667908,174.587692 
	C75.725418,173.052704 77.045570,170.928940 78.395462,170.181854 
	C87.044617,165.394867 91.328003,158.146851 91.934357,148.384140 
	C92.025032,146.924179 93.118065,144.991211 94.340942,144.227661 
	C100.249496,140.538422 106.360992,137.174210 112.514435,133.629105 
	C122.615204,141.054520 132.892776,141.940155 143.489410,134.710648 
	C144.281006,134.170578 145.999374,134.348633 146.970032,134.830811 
	C149.939026,136.305634 152.694565,138.205170 155.640228,139.733063 
	C161.490479,142.767563 166.558929,145.402130 166.677124,153.894257 
	C166.784424,161.603973 172.218094,166.243347 182.016144,171.675598 
	C182.016144,180.212265 182.091339,188.862305 181.927032,197.507782 
	C181.904907,198.671677 180.960739,200.366989 179.962814,200.878601 
	C169.810364,206.083725 165.237900,214.374466 165.888107,225.741486 
	C163.820633,226.935333 161.810089,228.096298 159.495041,229.469101 
M153.640564,201.007385 
	C160.161850,189.338623 159.566742,178.031815 151.451324,167.419830 
	C144.448883,158.263199 132.016220,154.449448 120.964493,157.615280 
	C108.349113,161.229050 99.888664,172.192505 99.661942,185.220139 
	C99.438675,198.048386 107.347450,209.242813 119.546509,213.365601 
	C132.189926,217.638580 144.860458,213.207001 153.640564,201.007385 
z"/>
<path fill="#0DCC8C" opacity="1.000000" stroke="none" 
	d="
M131.022034,264.058044 
	C126.929092,265.750885 123.279099,264.146881 121.716934,260.781403 
	C120.439484,258.029297 120.281235,253.885635 121.420135,251.089294 
	C123.108017,246.945084 127.363518,246.218323 131.641113,247.733887 
	C127.432365,253.331970 128.701965,258.675598 131.022034,264.058044 
z"/>
<path fill="#0ECC8C" opacity="1.000000" stroke="none" 
	d="
M192.033920,231.087631 
	C187.921219,232.880035 184.296692,231.191666 182.723785,227.845062 
	C181.433441,225.099625 181.259918,220.952271 182.390289,218.152695 
	C184.064774,214.005524 188.302261,213.222610 192.594818,214.770142 
	C187.958130,220.364334 189.978363,225.725403 192.033920,231.087631 
z"/>
<path fill="#0DCC8C" opacity="1.000000" stroke="none" 
	d="
M69.993164,156.982117 
	C66.138252,158.570618 62.643887,157.150970 60.984753,154.027832 
	C59.618393,151.455826 59.203686,147.643188 59.991325,144.836060 
	C61.142567,140.733078 64.961197,139.397186 69.547653,140.421051 
	C67.465538,146.289459 67.187027,151.645935 69.993164,156.982117 
z"/>
<path fill="#0DCA8B" opacity="1.000000" stroke="none" 
	d="
M131.002655,124.008797 
	C127.144577,125.634186 123.645088,124.234566 121.979248,121.086105 
	C120.611618,118.501259 120.175697,114.686188 120.961884,111.873436 
	C122.114250,107.750603 125.961601,106.440956 130.549469,107.444717 
	C127.962723,113.315643 128.467987,118.669479 131.002655,124.008797 
z"/>
<path fill="#DE1E7C" opacity="1.000000" stroke="none" 
	d="
M192.011475,156.962341 
	C188.158829,158.526535 184.615784,157.195129 182.941681,154.035675 
	C181.573822,151.454208 181.166534,147.624817 181.963348,144.810120 
	C183.130722,140.686508 186.972382,139.375458 191.564728,140.433029 
	C188.985474,146.295609 189.437515,151.636551 192.011475,156.962341 
z"/>
<path fill="#DD1D7B" opacity="1.000000" stroke="none" 
	d="
M70.040268,231.091629 
	C65.950340,232.827042 62.405441,231.159821 60.745499,227.841248 
	C59.453499,225.258270 59.190956,221.313019 60.198071,218.618851 
	C61.856777,214.181610 66.095131,213.223495 70.604004,214.730011 
	C65.979263,220.341217 67.948479,225.714371 70.040268,231.091629 
z"/>
<path fill="#05DC97" opacity="1.000000" stroke="none" 
	d="
M131.364273,124.013214 
	C128.467987,118.669479 127.962723,113.315643 130.951706,107.568451 
	C135.331314,108.181717 137.497406,111.231339 137.685883,115.309494 
	C137.876007,119.423103 135.834976,122.566452 131.364273,124.013214 
z"/>
<path fill="#05DC97" opacity="1.000000" stroke="none" 
	d="
M70.354324,156.990265 
	C67.187027,151.645935 67.465538,146.289459 69.950218,140.546021 
	C74.375900,141.111465 76.517944,144.186340 76.714432,148.274521 
	C76.913521,152.416885 74.819542,155.536041 70.354324,156.990265 
z"/>
<path fill="#F73B93" opacity="1.000000" stroke="none" 
	d="
M192.369247,156.973572 
	C189.437515,151.636551 188.985474,146.295609 191.968292,140.562271 
	C196.371201,141.151184 198.449371,144.236465 198.645981,148.285553 
	C198.845566,152.396255 196.777206,155.496918 192.369247,156.973572 
z"/>
<path fill="#F73B92" opacity="1.000000" stroke="none" 
	d="
M70.404251,231.090652 
	C67.948479,225.714371 65.979263,220.341217 70.908997,214.991287 
	C75.090256,216.089020 76.744255,219.135101 76.723343,222.816345 
	C76.701050,226.739105 74.756866,229.774216 70.404251,231.090652 
z"/>
<path fill="#05DC97" opacity="1.000000" stroke="none" 
	d="
M131.385132,264.058075 
	C128.701965,258.675598 127.432365,253.331970 131.951675,247.996933 
	C136.121323,249.108704 137.738480,252.164017 137.696152,255.818451 
	C137.651077,259.710815 135.703064,262.735291 131.385132,264.058075 
z"/>
<path fill="#05DC97" opacity="1.000000" stroke="none" 
	d="
M192.396881,231.082275 
	C189.978363,225.725403 187.958130,220.364334 192.899033,215.034805 
	C197.130829,216.084991 198.663071,219.207718 198.662201,222.822266 
	C198.661270,226.711182 196.716095,229.747314 192.396881,231.082275 
z"/>
<path fill="#DE1E7C" opacity="1.000000" stroke="none" 
	d="
M416.687805,341.667664 
	C412.800842,349.661560 408.557739,357.543488 404.104584,365.304871 
	C395.011688,381.152924 385.801727,396.933807 376.663086,412.755737 
	C376.343628,413.308777 376.270996,414.004425 376.091736,414.957916 
	C363.850006,415.282227 351.599884,415.282227 338.820648,415.282227 
	C339.534210,413.776062 339.992767,412.604675 340.613983,411.527039 
	C353.328094,389.471405 366.132141,367.467010 378.706848,345.332306 
	C380.444275,342.274017 382.347992,341.226837 385.760101,341.309052 
	C395.914581,341.553741 406.077179,341.461639 416.687805,341.667664 
z"/>
<path fill="#040303" opacity="1.000000" stroke="none" 
	d="
M153.419220,201.301666 
	C144.860458,213.207001 132.189926,217.638580 119.546509,213.365601 
	C107.347450,209.242813 99.438675,198.048386 99.661942,185.220139 
	C99.888664,172.192505 108.349113,161.229050 120.964493,157.615280 
	C132.016220,154.449448 144.448883,158.263199 151.451324,167.419830 
	C159.566742,178.031815 160.161850,189.338623 153.419220,201.301666 
M132.791336,199.141815 
	C139.468979,196.613144 143.043243,191.832596 142.965958,185.533340 
	C142.887115,179.107437 139.240372,174.657516 131.160767,171.891510 
	C129.838913,171.850800 128.504639,171.673141 127.197235,171.791702 
	C118.962318,172.538513 113.507736,180.012024 114.951675,188.489899 
	C116.286514,196.327164 124.100609,201.192947 132.791336,199.141815 
z"/>
<path fill="#E11E7D" opacity="1.000000" stroke="none" 
	d="
M132.054718,199.139862 
	C124.100609,201.192947 116.286514,196.327164 114.951675,188.489899 
	C113.507736,180.012024 118.962318,172.538513 127.197235,171.791702 
	C128.504639,171.673141 129.838913,171.850800 131.422516,172.331711 
	C126.356506,181.637817 126.141434,190.431885 132.054718,199.139862 
z"/>
<path fill="#FA3C94" opacity="1.000000" stroke="none" 
	d="
M132.423035,199.140839 
	C126.141434,190.431885 126.356506,181.637817 131.845306,172.465912 
	C139.240372,174.657516 142.887115,179.107437 142.965958,185.533340 
	C143.043243,191.832596 139.468979,196.613144 132.423035,199.140839 
z"/>
</svg>